name rise30.3154peak39.0474fall46.5389.mot
datacolumns 19
datarows 32
range 3.09999400000000 3.15165500000000
endheader
time	ground_force1_vx	ground_force1_vy	ground_force1_vz	ground_force1_px	ground_force1_py	ground_force1_pz	ground_force2_vx	ground_force2_vy	ground_force2_vz	ground_force2_px	ground_force2_py	ground_force2_pz	ground_torque1_x	ground_torque1_y	ground_torque1_z	ground_torque2_x	ground_torque2_y	ground_torque2_z	
3.09999400000000	-41.74200300000000	805.43397000000004	52.99636000000000	0.10989600000000	0.00000000000000	0.09083500000000	-1.23019600000000	3.63827300000000	1.29923700000000	0.00000000000000	0.00000000000000	0.00000000000000	0.00000000000000	17.98417600000000	0.00000000000000	0.00000000000000	0.43180100000000	0.00000000000000	
3.10166000000000	-41.83096000000000	802.32790599999998	52.88538400000000	0.10925700000000	0.00000000000000	0.09077700000000	-1.95640800000000	7.23502900000000	2.19856100000000	0.00000000000000	0.00000000000000	0.00000000000000	0.00000000000000	17.88673800000000	0.00000000000000	0.00000000000000	0.74090900000000	0.00000000000000	
3.10332100000000	-41.93125600000000	799.10680800000000	52.75508900000000	0.10863300000000	0.00000000000000	0.09071300000000	-2.77462800000000	11.61165000000000	3.24078500000000	0.00000000000000	0.00000000000000	0.00000000000000	0.00000000000000	17.78919300000000	0.00000000000000	0.00000000000000	1.10120100000000	0.00000000000000	
3.10498800000000	-42.04384200000000	795.77254000000005	52.60514300000000	0.10802500000000	0.00000000000000	0.09064400000000	-3.65890700000000	16.73029700000000	4.40168100000000	0.00000000000000	0.00000000000000	0.00000000000000	0.00000000000000	17.69171200000000	0.00000000000000	0.00000000000000	1.50496200000000	0.00000000000000	
3.10665800000000	-42.16962000000000	792.32695999999999	52.43524700000000	0.10743300000000	0.00000000000000	0.09057000000000	-4.57702200000000	22.51970400000000	5.64894500000000	0.00000000000000	0.00000000000000	0.00000000000000	0.00000000000000	17.59445700000000	0.00000000000000	0.00000000000000	1.94170200000000	0.00000000000000	
3.10832300000000	-42.30944800000000	788.77190599999994	52.24513300000000	0.10685700000000	0.00000000000000	0.09049000000000	-5.49255100000000	28.88066800000000	6.94432600000000	0.32983000000000	0.00000000000000	-0.07086900000000	0.00000000000000	17.49757900000000	0.00000000000000	0.00000000000000	4.30005300000000	0.00000000000000	
3.10998700000000	-42.46412800000000	785.10918700000002	52.03457100000000	0.10629600000000	0.00000000000000	0.09040500000000	-6.36747700000000	35.69452100000000	8.24644900000000	0.33417600000000	0.00000000000000	-0.07218900000000	0.00000000000000	17.40121800000000	0.00000000000000	0.00000000000000	5.15883500000000	0.00000000000000	
3.11165400000000	-42.63440400000000	781.34056899999996	51.80336200000000	0.10575200000000	0.00000000000000	0.09031400000000	-7.16499900000000	42.83345500000000	9.51396800000000	0.33815900000000	0.00000000000000	-0.07335700000000	0.00000000000000	17.30550200000000	0.00000000000000	0.00000000000000	6.01120000000000	0.00000000000000	
3.11332700000000	-42.82095800000000	777.46776199999999	51.55134600000000	0.10522400000000	0.00000000000000	0.09021800000000	-7.85215900000000	50.17122600000000	10.70862000000000	0.34182600000000	0.00000000000000	-0.07440100000000	0.00000000000000	17.21054500000000	0.00000000000000	0.00000000000000	6.83285200000000	0.00000000000000	
3.11499400000000	-43.02440300000000	773.49241199999994	51.27839800000000	0.10471100000000	0.00000000000000	0.09011600000000	-8.40195700000000	57.59279700000000	11.79777800000000	0.34521400000000	0.00000000000000	-0.07534100000000	0.00000000000000	17.11645000000000	0.00000000000000	0.00000000000000	7.60252500000000	0.00000000000000	
3.11666100000000	-43.24527900000000	769.41609100000005	50.98442700000000	0.10421400000000	0.00000000000000	0.09000800000000	-8.79475500000000	65.00190200000000	12.75626200000000	0.34835300000000	0.00000000000000	-0.07619500000000	0.00000000000000	17.02330400000000	0.00000000000000	0.00000000000000	8.30323900000000	0.00000000000000	
3.11832700000000	-43.48405000000000	765.24028599999997	50.66938000000000	0.10373300000000	0.00000000000000	0.08989400000000	-9.01888600000000	72.32597900000000	13.56728300000000	0.35126900000000	0.00000000000000	-0.07697700000000	0.00000000000000	16.93118100000000	0.00000000000000	0.00000000000000	8.92304200000000	0.00000000000000	
3.11999200000000	-43.74109800000000	760.96639000000005	50.33324200000000	0.10326600000000	0.00000000000000	0.08977500000000	-9.07053300000000	79.51837900000000	14.22257200000000	0.35398000000000	0.00000000000000	-0.07769800000000	0.00000000000000	16.84013900000000	0.00000000000000	0.00000000000000	9.45522200000000	0.00000000000000	
3.12166000000000	-44.01672100000000	756.59569699999997	49.97603200000000	0.10281300000000	0.00000000000000	0.08965000000000	-8.95298300000000	86.55808000000000	14.72177900000000	0.35650400000000	0.00000000000000	-0.07836700000000	0.00000000000000	16.75022300000000	0.00000000000000	0.00000000000000	9.89806100000000	0.00000000000000	
3.12332800000000	-44.31112500000000	752.12939400000005	49.59780700000000	0.10237400000000	0.00000000000000	0.08952000000000	-8.67543200000000	93.44733400000000	15.07133800000000	0.35885500000000	0.00000000000000	-0.07899100000000	0.00000000000000	16.66146100000000	0.00000000000000	0.00000000000000	10.25421400000000	0.00000000000000	
3.12499000000000	-44.62442500000000	747.56855299999995	49.19866100000000	0.10194800000000	0.00000000000000	0.08938400000000	-8.25150500000000	100.20780300000000	15.28296200000000	0.36104700000000	0.00000000000000	-0.07957700000000	0.00000000000000	16.57386800000000	0.00000000000000	0.00000000000000	10.52983900000000	0.00000000000000	
3.12666000000000	-44.95663800000000	742.91412800000001	48.77872200000000	0.10153400000000	0.00000000000000	0.08924200000000	-7.69767900000000	106.87577000000000	15.37197400000000	0.36308900000000	0.00000000000000	-0.08012900000000	0.00000000000000	16.48744200000000	0.00000000000000	0.00000000000000	10.73357900000000	0.00000000000000	
3.12832600000000	-45.30768100000000	738.16695000000004	48.33815600000000	0.10113200000000	0.00000000000000	0.08909400000000	-7.03173300000000	113.49697800000000	15.35562900000000	0.36499100000000	0.00000000000000	-0.08065200000000	0.00000000000000	16.40216600000000	0.00000000000000	0.00000000000000	10.87552100000000	0.00000000000000	
3.12999400000000	-45.67737000000000	733.32772499999999	47.87716500000000	0.10074000000000	0.00000000000000	0.08894200000000	-6.27137500000000	120.12158599999999	15.25157000000000	0.36676300000000	0.00000000000000	-0.08114900000000	0.00000000000000	16.31801000000000	0.00000000000000	0.00000000000000	10.96621400000000	0.00000000000000	
3.13166200000000	-46.06541500000000	728.39702899999997	47.39598700000000	0.10035900000000	0.00000000000000	0.08878400000000	-5.43309700000000	126.79961800000000	15.07652300000000	0.36841100000000	0.00000000000000	-0.08162400000000	0.00000000000000	16.23492600000000	0.00000000000000	0.00000000000000	11.01581700000000	0.00000000000000	
3.13332600000000	-46.47141700000000	723.37531100000001	46.89489400000000	0.09998600000000	0.00000000000000	0.08862000000000	-4.53132700000000	133.57718299999999	14.84527900000000	0.36994100000000	0.00000000000000	-0.08207900000000	0.00000000000000	16.15285400000000	0.00000000000000	0.00000000000000	11.03342400000000	0.00000000000000	
3.13499000000000	-46.89487000000000	718.26288599999998	46.37419300000000	0.09962100000000	0.00000000000000	0.08845200000000	-3.57788800000000	140.49362300000001	14.57000700000000	0.37136200000000	0.00000000000000	-0.08251600000000	0.00000000000000	16.07171900000000	0.00000000000000	0.00000000000000	11.02659100000000	0.00000000000000	
3.13666100000000	-47.33515600000000	713.05994399999997	45.83422600000000	0.09926300000000	0.00000000000000	0.08827800000000	-2.58174400000000	147.57963799999999	14.25988500000000	0.37267700000000	0.00000000000000	-0.08293700000000	0.00000000000000	15.99143200000000	0.00000000000000	0.00000000000000	11.00105600000000	0.00000000000000	
3.13832400000000	-47.79154600000000	707.76654699999995	45.27537000000000	0.09891100000000	0.00000000000000	0.08810000000000	-1.54901300000000	154.85635300000001	13.92101400000000	0.37389300000000	0.00000000000000	-0.08334500000000	0.00000000000000	15.91189100000000	0.00000000000000	0.00000000000000	10.96065900000000	0.00000000000000	
3.13999300000000	-48.26319800000000	702.38263099999995	44.69803200000000	0.09856400000000	0.00000000000000	0.08791700000000	-0.48318300000000	162.33523700000001	13.55659200000000	0.37501400000000	0.00000000000000	-0.08373900000000	0.00000000000000	15.83298100000000	0.00000000000000	0.00000000000000	10.90741100000000	0.00000000000000	
3.14166000000000	-48.74916000000000	696.90801499999998	44.10265600000000	0.09822100000000	0.00000000000000	0.08773000000000	0.61450400000000	170.01871700000001	13.16725700000000	0.37604400000000	0.00000000000000	-0.08412200000000	0.00000000000000	15.75457600000000	0.00000000000000	0.00000000000000	10.84169700000000	0.00000000000000	
3.14332300000000	-49.24836700000000	691.34240299999999	43.48971600000000	0.09788000000000	0.00000000000000	0.08753800000000	1.74457600000000	177.90130300000001	12.75157200000000	0.37698800000000	0.00000000000000	-0.08449500000000	0.00000000000000	15.67653700000000	0.00000000000000	0.00000000000000	10.76256100000000	0.00000000000000	
3.14498800000000	-49.75964500000000	685.68539399999997	42.85971700000000	0.09754100000000	0.00000000000000	0.08734200000000	2.90880800000000	185.97107199999999	12.30656900000000	0.37785000000000	0.00000000000000	-0.08485800000000	0.00000000000000	15.59871500000000	0.00000000000000	0.00000000000000	10.66804800000000	0.00000000000000	
3.14665400000000	-50.28170900000000	679.93648599999995	42.21319600000000	0.09720200000000	0.00000000000000	0.08714300000000	4.10969700000000	194.21130299999999	11.82831100000000	0.37863400000000	0.00000000000000	-0.08521200000000	0.00000000000000	15.52095300000000	0.00000000000000	0.00000000000000	10.55555400000000	0.00000000000000	
3.14832600000000	-50.81317000000000	674.09509200000002	41.55071900000000	0.09686300000000	0.00000000000000	0.08693900000000	5.34998100000000	202.60214199999999	11.31242700000000	0.37934200000000	0.00000000000000	-0.08555800000000	0.00000000000000	15.44308100000000	0.00000000000000	0.00000000000000	10.42216400000000	0.00000000000000	
3.14998700000000	-51.35253400000000	668.16054699999995	40.87288100000000	0.09652300000000	0.00000000000000	0.08673200000000	6.63222700000000	211.12214399999999	10.75458200000000	0.37997800000000	0.00000000000000	-0.08589600000000	0.00000000000000	15.36492300000000	0.00000000000000	0.00000000000000	10.26496100000000	0.00000000000000	
3.15165500000000	-51.89820500000000	662.13212099999998	40.18030600000000	0.09617900000000	0.00000000000000	0.08652100000000	7.95850100000000	219.74962700000000	10.15085500000000	0.38054600000000	0.00000000000000	-0.08622700000000	0.00000000000000	15.28629600000000	0.00000000000000	0.00000000000000	10.08126800000000	0.00000000000000	
